{
  "accessors": [
    {
      "bufferView": 2,
      "componentType": 5126,
      "count": 1679,
      "max": [
        0.8243921995162964,
        0.59898841381073,
        1.816769003868103
      ],
      "min": [
        -0.8244990706443787,
        -0.5091416239738464,
        0.01664113998413086
      ],
      "type": "VEC3"
    },
    {
      "bufferView": 2,
      "byteOffset": 20148,
      "componentType": 5126,
      "count": 1679,
      "max": [
        0.9999402761459351,
        0.999518096446991,
        0.9999927282333374
      ],
      "min": [
        -0.9996201992034912,
        -0.999435305595398,
        -0.999939501285553
      ],
      "type": "VEC3"
    },
    {
      "bufferView": 1,
      "componentType": 5126,
      "count": 1679,
      "max": [
        0.9763180017471313,
        0.9946290254592896
      ],
      "min": [
        0.0029299999587237835,
        -0.9868159890174866
      ],
      "type": "VEC2"
    },
    {
      "bufferView": 0,
      "componentType": 5125,
      "count": 4374,
      "type": "SCALAR"
    },
    {
      "bufferView": 2,
      "byteOffset": 40296,
      "componentType": 5126,
      "count": 68,
      "max": [
        0.12316109985113144,
        0.05234263092279434,
        1.7563199996948242
      ],
      "min": [
        -0.131952702999115,
        -0.0739346295595169,
        1.6414769887924194
      ],
      "type": "VEC3"
    },
    {
      "bufferView": 2,
      "byteOffset": 41112,
      "componentType": 5126,
      "count": 68,
      "max": [
        0.9676792025566101,
        0.7342240810394287,
        0.9908320903778076
      ],
      "min": [
        -0.9718195199966431,
        -0.9949398040771484,
        -0.4156356453895569
      ],
      "type": "VEC3"
    },
    {
      "bufferView": 1,
      "byteOffset": 13432,
      "componentType": 5126,
      "count": 68,
      "max": [
        1.7905269861221313,
        0.7595210075378418
      ],
      "min": [
        0.21801799535751343,
        -0.5131840109825134
      ],
      "type": "VEC2"
    },
    {
      "bufferView": 0,
      "byteOffset": 17496,
      "componentType": 5125,
      "count": 240,
      "type": "SCALAR"
    },
    {
      "bufferView": 2,
      "byteOffset": 41928,
      "componentType": 5126,
      "count": 646,
      "max": [
        0.063372403383255,
        -0.06711996346712112,
        1.7228729724884033
      ],
      "min": [
        -0.07343868911266327,
        -0.07252352684736252,
        1.7010129690170288
      ],
      "type": "VEC3"
    },
    {
      "bufferView": 2,
      "byteOffset": 49680,
      "componentType": 5126,
      "count": 646,
      "max": [
        1.0,
        1.0,
        1.0
      ],
      "min": [
        -1.0,
        -1.0,
        -1.0
      ],
      "type": "VEC3"
    },
    {
      "bufferView": 1,
      "byteOffset": 13976,
      "componentType": 5126,
      "count": 646,
      "max": [
        0.0,
        1.0
      ],
      "min": [
        -1.0,
        0.0833333432674408
      ],
      "type": "VEC2"
    },
    {
      "bufferView": 0,
      "byteOffset": 18456,
      "componentType": 5125,
      "count": 3168,
      "type": "SCALAR"
    }
  ],
  "asset": {
    "extras": {
      "author": "Jamessmartguy (https://sketchfab.com/skybaca1985)",
      "license": "CC-BY-4.0 (http://creativecommons.org/licenses/by/4.0/)",
      "source": "https://sketchfab.com/3d-models/brian-griffin-64643ceb549447a8b1109ac90c9b98e8",
      "title": "Brian Griffin"
    },
    "generator": "Sketchfab-16.45.0",
    "version": "2.0"
  },
  "bufferViews": [
    {
      "buffer": 0,
      "byteLength": 31128,
      "name": "floatBufferViews",
      "target": 34963
    },
    {
      "buffer": 0,
      "byteLength": 19144,
      "byteOffset": 31128,
      "byteStride": 8,
      "name": "floatBufferViews",
      "target": 34962
    },
    {
      "buffer": 0,
      "byteLength": 57432,
      "byteOffset": 50272,
      "byteStride": 12,
      "name": "floatBufferViews",
      "target": 34962
    }
  ],
  "buffers": [
    {
      "byteLength": 107704,
      "uri": "scene.bin"
    }
  ],
  "extensionsRequired": [
    "KHR_materials_pbrSpecularGlossiness"
  ],
  "extensionsUsed": [
    "KHR_materials_pbrSpecularGlossiness"
  ],
  "images": [
    {
      "uri": "textures/Material_2_diffuse.png"
    }
  ],
  "materials": [
    {
      "doubleSided": true,
      "extensions": {
        "KHR_materials_pbrSpecularGlossiness": {
          "diffuseFactor": [
            0.0015591878794864408,
            0.0015145567206549763,
            0.0015145567206549763,
            1.0
          ],
          "glossinessFactor": 0.4,
          "specularFactor": [
            0.0,
            0.0,
            0.0
          ]
        }
      },
      "name": "Material"
    },
    {
      "doubleSided": true,
      "extensions": {
        "KHR_materials_pbrSpecularGlossiness": {
          "diffuseFactor": [
            1.0,
            1.0,
            1.0,
            1.0
          ],
          "glossinessFactor": 0.4,
          "specularFactor": [
            0.0,
            0.0,
            0.0
          ]
        }
      },
      "name": "Material_1"
    },
    {
      "doubleSided": true,
      "extensions": {
        "KHR_materials_pbrSpecularGlossiness": {
          "diffuseFactor": [
            1.0,
            1.0,
            1.0,
            1.0
          ],
          "diffuseTexture": {
            "index": 0
          },
          "glossinessFactor": 0.4,
          "specularFactor": [
            0.0,
            0.0,
            0.0
          ]
        }
      },
      "name": "Material_2"
    }
  ],
  "meshes": [
    {
      "name": "Object_0",
      "primitives": [
        {
          "attributes": {
            "NORMAL": 1,
            "POSITION": 0,
            "TEXCOORD_0": 2
          },
          "indices": 3,
          "material": 2,
          "mode": 4
        }
      ]
    },
    {
      "name": "Object_1",
      "primitives": [
        {
          "attributes": {
            "NORMAL": 5,
            "POSITION": 4,
            "TEXCOORD_0": 6
          },
          "indices": 7,
          "material": 1,
          "mode": 4
        }
      ]
    },
    {
      "name": "Object_2",
      "primitives": [
        {
          "attributes": {
            "NORMAL": 9,
            "POSITION": 8,
            "TEXCOORD_0": 10
          },
          "indices": 11,
          "material": 0,
          "mode": 4
        }
      ]
    }
  ],
  "nodes": [
    {
      "children": [
        1
      ],
      "matrix": [
        1.0,
        0.0,
        0.0,
        0.0,
        0.0,
        2.220446049250313e-16,
        -1.0,
        0.0,
        0.0,
        1.0,
        2.220446049250313e-16,
        0.0,
        0.0,
        0.0,
        0.0,
        1.0
      ],
      "name": "Sketchfab_model"
    },
    {
      "children": [
        2,
        3,
        4
      ],
      "name": "New Project.obj.cleaner.materialmerger.gles"
    },
    {
      "mesh": 0,
      "name": "Object_2"
    },
    {
      "mesh": 1,
      "name": "Object_3"
    },
    {
      "mesh": 2,
      "name": "Object_4"
    }
  ],
  "samplers": [
    {
      "magFilter": 9729,
      "minFilter": 9987,
      "wrapS": 10497,
      "wrapT": 10497
    }
  ],
  "scene": 0,
  "scenes": [
    {
      "name": "Sketchfab_Scene",
      "nodes": [
        0
      ]
    }
  ],
  "textures": [
    {
      "sampler": 0,
      "source": 0
    }
  ]
}
